<?xml version="1.0" standalone="no"?><!DOCTYPE svg PUBLIC "-//W3C//DTD SVG 1.1//EN" "http://www.w3.org/Graphics/SVG/1.1/DTD/svg11.dtd"><svg t="1586404650458" class="icon" viewBox="0 0 1024 1024" version="1.1" xmlns="http://www.w3.org/2000/svg" p-id="9898" xmlns:xlink="http://www.w3.org/1999/xlink" width="200" height="200"><defs><style type="text/css"></style></defs><path d="M857.85 691.15c-21.7-21.7-51.7-35.15-84.85-35.15-33.15 0-63.15 13.45-84.85 35.15-21.7 21.7-35.15 51.7-35.15 84.85 0 33.15 13.45 63.15 35.15 84.85 21.7 21.7 51.7 35.15 84.85 35.15 33.15 0 63.15-13.45 84.85-35.15 21.7-21.7 35.15-51.7 35.15-84.85-0.05-33.15-13.45-63.15-35.15-84.85z" fill="#00ACC1" p-id="9899"></path><path d="M794.45 754.5h55.3v43h-55.3v55.25h-43V797.5h-55.25v-43h55.25v-55.25h43z" fill="#FFFFFE" p-id="9900"></path><path d="M195.8 636.95c-25.85 23.8-47.3 52.55-62.85 84.8h-0.05c-0.1 0.25-0.2 0.5-0.3 0.7-2.05 4.5-3 9.25-3 13.85 0 6.3 1.85 12.5 5.15 17.85 3.35 5.4 8.15 9.85 14 12.65 4.35 2.05 9.25 3.25 14.5 3.25h444.2c5.25 0 10.1-1.2 14.45-3.25 5.85-2.8 10.7-7.25 14.05-12.6 3.3-5.3 5.15-11.5 5.15-17.95h-0.05c0-4.95-1.05-9.9-3.25-14.6-0.2-0.35-0.35-0.75-0.55-1.1-15.3-31.45-36.6-59.55-62.25-82.9-105.3-95.75-273.75-97.8-379.2-0.7z" fill="#689F38" p-id="9901"></path><path d="M309.75 467.35h151.2v108l-75.8 97.5-75.4-97.5z" fill="#D5BC97" p-id="9902"></path><path d="M230.35 399.3a35.85 22.75 90 1 0 45.5 0 35.85 22.75 90 1 0-45.5 0Z" fill="#D5BC97" p-id="9903"></path><path d="M494.9 399.3a35.85 22.75 90 1 0 45.5 0 35.85 22.75 90 1 0-45.5 0Z" fill="#D5BC97" p-id="9904"></path><path d="M245.25 395.25a157.55 140.1 90 1 0 280.2 0 157.55 140.1 90 1 0-280.2 0Z" fill="#FFE0B2" p-id="9905"></path><path d="M516.35 410.6l-13.65-0.45v-28.95s-7.1-44.6-34.4-44.6l-99.6-0.45s-32.35-3.2-53.6-45.5c0 0-14.15-5.05-22.75 42.75 0 0-27.8 30.35-24.8 76.3l-15.95 1.4C222 331.15 218.15 197.75 349.5 199.35c0 0 73.3-17.95 127.4 11.95 0 0 110 31.25 39.45 199.3z" fill="#212121" p-id="9906"></path></svg>