<?xml version="1.0" standalone="no"?><!DOCTYPE svg PUBLIC "-//W3C//DTD SVG 1.1//EN" "http://www.w3.org/Graphics/SVG/1.1/DTD/svg11.dtd"><svg t="1586404916824" class="icon" viewBox="0 0 1024 1024" version="1.1" xmlns="http://www.w3.org/2000/svg" p-id="13024" xmlns:xlink="http://www.w3.org/1999/xlink" width="200" height="200"><defs><style type="text/css"></style></defs><path d="M550.4 714.9568A159.6416 159.6416 0 0 1 746.496 582.4512a14.6432 14.6432 0 0 0 16.6912-8.192 308.736 308.736 0 0 0 27.3408-143.36 309.8624 309.8624 0 0 0-354.0992-291.7376 237.8752 237.8752 0 0 1-265.6256 313.7536 309.5552 309.5552 0 0 0 156.2624 262.144 29.696 29.696 0 0 1 13.5168 34.7136c-19.1488 25.4976-28.9792 70.5536-33.28 95.232a14.848 14.848 0 0 0 14.7456 17.3056l250.4704-0.6144a14.9504 14.9504 0 0 0 11.264-24.576 159.4368 159.4368 0 0 1-33.3824-122.1632zM384.7168 462.4384a22.4256 22.4256 0 1 1 44.7488 0 51.2 51.2 0 0 0 27.3408 45.2608 66.3552 66.3552 0 0 1-6.2464-27.0336 66.3552 66.3552 0 0 0 5.7344 27.0336A51.2 51.2 0 0 0 532.48 462.4384a22.4256 22.4256 0 1 1 44.7488 0 96.0512 96.0512 0 0 1-49.9712 84.1728 66.6624 66.6624 0 0 0 57.5488-65.9456 66.6624 66.6624 0 0 1-57.5488 65.9456 95.9488 95.9488 0 0 1-142.1312-84.1728z" fill="#FFBA00" p-id="13025"></path><path d="M716.0832 604.16a137.3184 137.3184 0 1 0 137.3184 137.5232A137.3184 137.3184 0 0 0 716.0832 604.16z m55.6032 156.9792h-35.9424v35.9424a19.6608 19.6608 0 0 1-39.3216 0v-35.7376H660.48a19.6608 19.6608 0 1 1 0-39.3216H696.32V686.08a19.6608 19.6608 0 1 1 39.3216 0v35.9424h35.9424a19.6608 19.6608 0 1 1 0 39.3216z" fill="#FFBA00" p-id="13026"></path><path d="M660.48 737.28a4.8128 4.8128 0 0 0-4.7104 4.7104 4.7104 4.7104 0 0 0 4.7104 4.7104H696.32V737.28zM771.584 746.3936a4.7104 4.7104 0 0 0 0-9.5232h-35.84v9.5232z" fill="#FFFFFF" p-id="13027"></path><path d="M771.584 722.0224h-35.84v7.4752H778.24a5.8368 5.8368 0 0 1 5.7344 5.7344v12.8a5.8368 5.8368 0 0 1-5.7344 5.7344h-42.496v7.4752h35.9424a19.6608 19.6608 0 1 0 0-39.3216zM654.0288 753.8688a5.8368 5.8368 0 0 1-5.7344-5.7344V735.232a5.8368 5.8368 0 0 1 5.7344-5.7344H696.32v-7.4752h-35.84a19.6608 19.6608 0 1 0 0 39.3216H696.32v-7.4752z" fill="#FFFFFF" p-id="13028"></path><path d="M771.584 737.28a4.7104 4.7104 0 0 1 0 9.5232h-35.84v7.4752H778.24a5.8368 5.8368 0 0 0 5.7344-5.7344v-13.312a5.8368 5.8368 0 0 0-5.7344-5.7344h-42.496V737.28zM660.48 746.3936a4.7104 4.7104 0 0 1-4.7104-4.7104 4.8128 4.8128 0 0 1 4.7104-4.4032H696.32v-7.4752h-42.2912a5.8368 5.8368 0 0 0-5.7344 5.7344v12.8a5.8368 5.8368 0 0 0 5.7344 5.7344H696.32v-7.4752zM711.3728 797.2864a4.7104 4.7104 0 0 0 4.7104 4.7104 4.8128 4.8128 0 0 0 4.7104-4.7104v-35.9424h-9.5232zM720.7936 686.08a4.7104 4.7104 0 0 0-9.5232 0v35.9424h9.5232zM711.3728 736.9728h9.5232v9.5232h-9.5232zM711.3728 722.0224h9.5232v7.4752h-9.5232z" fill="#FFFFFF" p-id="13029"></path><path d="M711.3728 753.8688h9.5232v7.4752h-9.5232zM711.3728 729.4976h9.5232v7.4752h-9.5232zM711.3728 746.3936h9.5232v7.4752h-9.5232zM703.8976 679.7312a5.8368 5.8368 0 0 1 5.7344-5.7344h12.8a5.8368 5.8368 0 0 1 5.7344 5.7344v42.2912h7.4752V686.08A19.6608 19.6608 0 1 0 696.32 686.08v35.9424h7.4752zM728.2688 803.6352a5.8368 5.8368 0 0 1-5.7344 5.7344H709.632a5.8368 5.8368 0 0 1-5.7344-5.7344v-42.2912H696.32v35.9424a19.6608 19.6608 0 0 0 39.3216 0v-35.9424h-7.4752zM728.2688 736.9728h7.4752v9.5232h-7.4752zM696.4224 736.9728h7.4752v9.5232h-7.4752zM696.4224 722.0224h7.4752v7.4752h-7.4752zM728.2688 753.8688h7.4752v7.4752h-7.4752zM696.4224 753.8688h7.4752v7.4752h-7.4752zM728.2688 722.0224h7.4752v7.4752h-7.4752z" fill="#FFFFFF" p-id="13030"></path><path d="M728.2688 746.3936h7.4752v7.4752h-7.4752zM728.2688 729.4976h7.4752v7.4752h-7.4752zM696.4224 746.3936h7.4752v7.4752h-7.4752zM696.4224 729.4976h7.4752v7.4752h-7.4752zM711.3728 686.08a4.7104 4.7104 0 0 1 9.5232 0v35.9424h7.4752v-42.2912a5.8368 5.8368 0 0 0-5.7344-5.7344H709.632a5.8368 5.8368 0 0 0-5.7344 5.7344v42.2912h7.4752zM720.7936 797.2864a4.8128 4.8128 0 0 1-4.7104 4.7104 4.7104 4.7104 0 0 1-4.7104-4.7104v-35.9424h-7.4752v42.2912a5.8368 5.8368 0 0 0 5.7344 5.7344h12.8a5.8368 5.8368 0 0 0 5.7344-5.7344v-42.2912h-7.4752z" fill="#FFFFFF" p-id="13031"></path><path d="M703.8976 736.9728h7.4752v9.5232h-7.4752zM720.7936 736.9728h7.4752v9.5232h-7.4752zM703.8976 753.8688h7.4752v7.4752h-7.4752zM720.7936 722.0224h7.4752v7.4752h-7.4752zM720.7936 753.8688h7.4752v7.4752h-7.4752zM703.8976 722.0224h7.4752v7.4752h-7.4752z" fill="#FFFFFF" p-id="13032"></path><path d="M720.7936 746.3936h7.4752v7.4752h-7.4752zM720.7936 729.4976h7.4752v7.4752h-7.4752zM703.8976 729.4976h7.4752v7.4752h-7.4752zM703.8976 746.3936h7.4752v7.4752h-7.4752zM517.632 547.328a66.6624 66.6624 0 0 1-60.928-39.6288 51.2 51.2 0 0 1-27.3408-45.2608 22.4256 22.4256 0 1 0-44.7488 0 95.9488 95.9488 0 0 0 142.1312 84.1728 66.9696 66.9696 0 0 1-9.1136 0.7168z" fill="#FFFFFF" p-id="13033"></path><path d="M517.632 547.328a66.9696 66.9696 0 0 0 9.1136-0.7168 96.0512 96.0512 0 0 0 49.9712-84.1728 22.4256 22.4256 0 1 0-44.7488 0 51.2 51.2 0 0 1-75.264 45.2608 66.6624 66.6624 0 0 0 60.928 39.6288z" fill="#FFFFFF" p-id="13034"></path><path d="M450.56 218.624a237.4656 237.4656 0 0 0-13.6192-79.4624 310.1696 310.1696 0 0 0-266.24 307.2v6.8608A237.7728 237.7728 0 0 0 450.56 218.624z" fill="#FFBA00" p-id="13035"></path><path d="M450.56 218.624a237.4656 237.4656 0 0 0-13.6192-79.4624 310.1696 310.1696 0 0 0-266.24 307.2v6.8608A237.7728 237.7728 0 0 0 450.56 218.624z" fill="#FEC744" p-id="13036"></path><path d="M190.2592 878.4896c4.3008-1.3312 8.6016-2.8672 12.8-4.5056a23.9616 23.9616 0 0 0-12.8 4.5056z" fill="#FFFFFF" p-id="13037"></path><path d="M190.2592 878.4896c4.3008-1.3312 8.6016-2.8672 12.8-4.5056a23.9616 23.9616 0 0 0-12.8 4.5056zM326.144 552.96a231.5264 231.5264 0 0 0-74.24-84.5824A582.7584 582.7584 0 0 0 326.144 552.96z" fill="#FFFFFF" p-id="13038"></path><path d="M326.144 552.96a231.5264 231.5264 0 0 0-74.24-84.5824A582.7584 582.7584 0 0 0 326.144 552.96z" fill="#FFFFFF" p-id="13039"></path></svg>