<?xml version="1.0" standalone="no"?><!DOCTYPE svg PUBLIC "-//W3C//DTD SVG 1.1//EN" "http://www.w3.org/Graphics/SVG/1.1/DTD/svg11.dtd"><svg t="1586405058131" class="icon" viewBox="0 0 1024 1024" version="1.1" xmlns="http://www.w3.org/2000/svg" p-id="14481" xmlns:xlink="http://www.w3.org/1999/xlink" width="200" height="200"><defs><style type="text/css"></style></defs><path d="M704.03584 344.79616a156.34432 156.34432 0 1 0-156.34432 157.02528 156.672 156.672 0 0 0 156.34432-157.02528z" fill="#F4CA1C" p-id="14482"></path><path d="M577.024 890.33728H185.07776a45.98784 45.98784 0 0 1-36.5312-17.87904 47.52896 47.52896 0 0 1-8.58624-40.87808 378.96704 378.96704 0 0 1 368.2304-288.768 373.80608 373.80608 0 0 1 174.24384 42.46528 33.52064 33.52064 0 0 0 30.72-59.58144 440.71936 440.71936 0 0 0-70.90688-29.28128 232.76544 232.76544 0 1 0-268.2368-0.06656 446.16192 446.16192 0 0 0-298.89536 319.05792 114.46272 114.46272 0 0 0 20.78208 98.4064A112.31232 112.31232 0 0 0 185.07776 957.44H577.024a33.55136 33.55136 0 0 0 0-67.10272zM342.23616 305.46432a165.95968 165.95968 0 1 1 165.95968 166.68672 166.51264 166.51264 0 0 1-165.95968-166.68672z m566.44096 448.43008h-100.09088v-100.52608a33.408 33.408 0 1 0-66.81088 0v100.52608h-100.09088a33.55136 33.55136 0 0 0 0 67.10272h100.09088v100.5312a33.408 33.408 0 1 0 66.81088 0v-100.5312h100.09088a33.55136 33.55136 0 0 0 0-67.10272z" fill="#595BB3" p-id="14483"></path></svg>