<?xml version="1.0" standalone="no"?><!DOCTYPE svg PUBLIC "-//W3C//DTD SVG 1.1//EN" "http://www.w3.org/Graphics/SVG/1.1/DTD/svg11.dtd"><svg t="1586404778655" class="icon" viewBox="0 0 1024 1024" version="1.1" xmlns="http://www.w3.org/2000/svg" p-id="10357" xmlns:xlink="http://www.w3.org/1999/xlink" width="200" height="200"><defs><style type="text/css"></style></defs><path d="M576.7 373.9c-0.45-64.6-0.95-137.9-41.7-183.35l0.05-0.05c-0.4-0.4-0.75-0.8-1.2-1.2-10.7-11.5-22.95-20.25-36.6-26.15-13.45-5.8-28.2-8.85-44.2-9.1l-1.7-1.3c-30.85-23.2-70.35-28.9-108-21.85-37 6.95-72.5 26.3-96.15 53.45-0.6 0.7-6.1 7.6-6.1 7.6h-0.05c-0.2 0.25-0.4 0.55-0.6 0.85-39.4 52.9-39.85 112.55-40.25 168.4-0.3 40.9-0.6 79.55-17.8 108.15-2.75 4.6-5.2 7.1-7 8.5l-0.25 0.2c-6 0.35-11.4 2.3-15.95 5.4-4.15 2.85-7.5 6.6-9.9 10.9-2.3 4.15-3.7 8.8-4.05 13.6-0.6 7.6 1.3 15.7 6.25 22.95h-0.05c0.2 0.3 0.4 0.55 0.6 0.8 11.95 17.35 31.95 29.85 54.3 38.55 22.85 8.9 48.5 13.95 69.85 16.15h220.45v-1c14.35-1.45 31.5-4.2 49.1-9.25 25.15-7.25 50.85-19.25 70.25-39.05 4.1-4.25 6.85-9.2 8.35-14.35 1.7-5.9 1.65-12.1 0.1-17.85-1.55-5.75-4.6-11.15-9.05-15.45-3.85-3.75-8.7-6.65-14.35-8.25v-0.05c-0.3-0.1-0.65-0.15-0.95-0.25-22.7-6.3-23-53.1-23.4-107z" fill="#4E342E" p-id="10358"></path><path d="M195.8 636.95c-25.85 23.8-47.3 52.55-62.85 84.8h-0.05c-0.1 0.25-0.2 0.5-0.3 0.7-2.05 4.5-3 9.25-3 13.85 0 6.3 1.85 12.5 5.15 17.85 3.35 5.4 8.15 9.85 14 12.65 4.35 2.05 9.25 3.25 14.5 3.25h444.2c5.25 0 10.1-1.2 14.45-3.25 5.85-2.8 10.7-7.25 14.05-12.6 3.3-5.3 5.15-11.5 5.15-17.95h-0.05c0-4.95-1.05-9.9-3.25-14.6-0.2-0.35-0.35-0.75-0.55-1.1-15.3-31.45-36.6-59.55-62.25-82.9-105.3-95.75-273.75-97.8-379.2-0.7z" fill="#D81B60" p-id="10359"></path><path d="M309.75 467.35h151.2v108l-75.8 97.5-75.4-97.5z" fill="#D5BC97" p-id="10360"></path><path d="M384.55 512.8c70.7 0 128-64.45 128-144 0-18.7-3.15-36.55-8.95-52.95-7.4 1.5-15.05 2.3-22.85 2.3-36.45 0-69.35-17.15-92.65-44.65-23.45 33.55-59.8 55.1-100.7 55.1-8.6 0-16.95-0.95-25.1-2.75-3.75 13.55-5.8 28-5.8 43 0.05 79.5 57.4 143.95 128.05 143.95z" fill="#FFE0B2" p-id="10361"></path><path d="M857.85 691.15c-21.7-21.7-51.7-35.15-84.85-35.15-33.15 0-63.15 13.45-84.85 35.15-21.7 21.7-35.15 51.7-35.15 84.85 0 33.15 13.45 63.15 35.15 84.85 21.7 21.7 51.7 35.15 84.85 35.15 33.15 0 63.15-13.45 84.85-35.15 21.7-21.7 35.15-51.7 35.15-84.85-0.05-33.15-13.45-63.15-35.15-84.85z" fill="#00ACC1" p-id="10362"></path><path d="M794.45 754.5h55.3v43h-55.3v55.25h-43V797.5h-55.25v-43h55.25v-55.25h43z" fill="#FFFFFE" p-id="10363"></path></svg>