<?xml version="1.0" standalone="no"?><!DOCTYPE svg PUBLIC "-//W3C//DTD SVG 1.1//EN" "http://www.w3.org/Graphics/SVG/1.1/DTD/svg11.dtd"><svg t="1586404859098" class="icon" viewBox="0 0 1024 1024" version="1.1" xmlns="http://www.w3.org/2000/svg" p-id="12209" xmlns:xlink="http://www.w3.org/1999/xlink" width="200" height="200"><defs><style type="text/css"></style></defs><path d="M708.48 533.44C783.2 500.18 835.5 425.35 835.5 338.43c0-117.7-95.76-213.47-213.47-213.47s-213.47 95.76-213.47 213.47c0 87.04 52.44 161.97 127.33 195.16C399.79 571.4 299.5 696.1 299.5 844.08c0 8.39 6.79 15.18 15.18 15.18s15.18-6.79 15.18-15.18c0-161.1 131.07-292.17 292.17-292.17 65.65 0 127.77 21.36 179.64 61.76 6.61 5.13 16.14 3.94 21.3-2.65 5.14-6.61 3.96-16.14-2.65-21.3-33.81-26.34-71.65-45.13-111.84-56.28zM438.93 338.43c0-100.97 82.14-183.11 183.11-183.11s183.11 82.14 183.11 183.11-82.14 183.11-183.11 183.11-183.11-82.14-183.11-183.11z" fill="#1D2088" p-id="12210"></path><path d="M428.48 586.88c9-6.77 18.35-13.09 28.04-18.91-16.94-10.37-34.9-18.67-53.64-24.67 25.92-13.38 48.11-33.57 64.02-58.71-7.48-7.93-14.38-16.39-20.59-25.38-23.22 44.02-68.9 72.23-119.02 72.23-74.39 0-134.92-60.53-134.92-134.94 0-74.39 60.53-134.92 134.92-134.92 31.82 0 62.1 11.16 86.28 31.38 2.33-10.68 5.56-21 9.42-31.01-27.8-19.84-60.99-30.72-95.7-30.72-91.14 0-165.28 74.14-165.28 165.28 0 63.89 36.5 119.33 89.69 146.83-99.8 32.04-172.27 125.72-172.27 236.09 0 8.39 6.79 15.18 15.18 15.18s15.18-6.79 15.18-15.18c0-120.01 97.57-217.65 217.5-217.65 35.61 0.01 70.14 8.71 101.19 25.1z" fill="#5E69FF" p-id="12211"></path><path d="M929.39 762.43h-91.07v-91.07c0-8.39-6.79-15.18-15.18-15.18s-15.18 6.79-15.18 15.18v91.07H716.9c-8.39 0-15.18 6.79-15.18 15.18s6.79 15.18 15.18 15.18h91.07v91.07c0 8.39 6.79 15.18 15.18 15.18s15.18-6.79 15.18-15.18v-91.07h91.07c8.39 0 15.18-6.79 15.18-15.18-0.01-8.39-6.8-15.18-15.19-15.18z" fill="#1D2088" p-id="12212"></path></svg>