<?xml version="1.0" standalone="no"?><!DOCTYPE svg PUBLIC "-//W3C//DTD SVG 1.1//EN" "http://www.w3.org/Graphics/SVG/1.1/DTD/svg11.dtd"><svg t="1586404985453" class="icon" viewBox="0 0 1024 1024" version="1.1" xmlns="http://www.w3.org/2000/svg" p-id="13559" xmlns:xlink="http://www.w3.org/1999/xlink" width="200" height="200"><defs><style type="text/css"></style></defs><path d="M672 672m-240 0a240 240 0 1 0 480 0 240 240 0 1 0-480 0Z" fill="#E6F1FD" p-id="13560"></path><path d="M894.4 794.8H789.9v104.4c0 20.1-16.5 36.6-36.7 36.6s-36.7-16.5-36.7-36.6V794.8H612c-20.2 0-36.7-16.5-36.7-36.6s16.5-36.6 36.7-36.6h104.5V617.1c0-20.1 16.5-36.6 36.7-36.6s36.7 16.5 36.7 36.6v104.4h104.5c20.2 0 36.7 16.5 36.7 36.6-0.1 20.2-16.5 36.7-36.7 36.7z" fill="#338FD3" p-id="13561"></path><path d="M533.1 64c-135.7 0-245.7 109.9-245.7 245.4 0 81.9 40.3 154.1 101.8 198.7C217.3 568 92.9 731.4 92.9 922.9c0 20.1 21.5 36.6 41.7 36.6 20.2 0 41.7-16.5 41.7-36.6 0-201.5 155.1-356.3 356.8-356.3 4.3 0 8.2-1.1 12-2.4 130.1-6.3 233.8-123.3 233.8-254.8C778.9 173.9 668.8 64 533.1 64z m0.1 403.4c-88.5 0-160-71.4-160-159.8s71.5-159.8 160-159.8c88.4 0 159.9 73.1 160 159.8 0 88.4-71.6 159.8-160 159.8z" fill="#53A4FC" p-id="13562"></path></svg>