<svg fill="#000000" xmlns="http://www.w3.org/2000/svg" viewBox="0 0 50 50" width="50px" height="50px"><path fill-rule="nonzero" d="M33,29c-1.795,0 -3,1.515 -3,4c0,2.485 0.889,5.048 3,5c2.22,-0.05 3.019,-2.224 3,-5c-0.017,-2.485 -1.206,-4 -3,-4Zm11.263,-11.934c0.272,-1.343 0.389,-6.101 -1.585,-11.066c0,0 -4.528,0.496 -11.38,5.198c-1.436,-0.397 -3.867,-0.595 -6.298,-0.595c-2.43,0 -4.861,0.198 -6.299,0.594c-6.851,-4.701 -11.378,-5.197 -11.378,-5.197c-1.974,4.965 -1.879,9.611 -1.586,11.066c-2.32,2.518 -3.737,5.543 -3.737,9.675c0,17.966 14.905,18.254 18.667,18.254c0.852,0 2.544,0.002 4.333,0.005c1.789,-0.003 3.483,-0.005 4.333,-0.005c3.762,0 18.667,-0.288 18.667,-18.254c0,-4.132 -1.417,-7.157 -3.737,-9.675Zm-19.122,25.934l-0.141,0c-9.429,0 -16.842,-1.339 -16.842,-10.503c0,-2.195 0.774,-4.233 2.614,-5.924c3.071,-2.818 8.264,-1.325 14.158,-1.325c0.023,0 0.119,0 0.141,0c5.894,0 11.089,-1.492 14.158,1.325c1.84,1.691 2.614,3.729 2.614,5.924c0,9.164 -7.273,10.503 -16.702,10.503Zm-8.141,-14c-1.794,0 -3,2.015 -3,4.5c0,2.485 1.206,4.5 3,4.5c1.796,0 3,-2.015 3,-4.5c0,-2.485 -1.204,-4.5 -3,-4.5Z"/></svg>