<?xml version="1.0" standalone="no"?><!DOCTYPE svg PUBLIC "-//W3C//DTD SVG 1.1//EN" "http://www.w3.org/Graphics/SVG/1.1/DTD/svg11.dtd"><svg t="1586707984484" class="icon" viewBox="0 0 1339 1024" version="1.1" xmlns="http://www.w3.org/2000/svg" p-id="5135" xmlns:xlink="http://www.w3.org/1999/xlink" width="261.5234375" height="200"><defs><style type="text/css"></style></defs><path d="M671.99400446 116.4921875c32.72305341 0 65.05106017 2.96285177 96.78649658 8.82271482a33.71067118 33.71067118 0 0 1 5.92570353 1.64602859c190.47845892 38.31955152 350.40662215 179.08793898 420.85665673 373.31934373a33.38146499 33.38146499 0 0 1 0 22.9127216c-65.84115424 181.4582204-211.54762822 319.19791486-389.91131438 366.20849873a531.33811343 531.33811343 0 0 1-40.16310382 8.9543973l-5.39897441 1.31682317c-21.72758088 3.68710459-43.65268547 5.92570353-65.84115423 6.84748006l-22.18846876 0.46088788H668.89947023c-234.06530239-1.31682317-440.14811497-155.71432952-522.84460481-383.85392838a34.03987658 34.03987658 0 0 1 0-22.97856283C228.88303773 272.14067578 435.09753201 117.74316943 669.22867564 116.4921875h2.83117006zM715.84421286 347.13375025H606.74542058a164.60288481 164.60288481 0 0 0 0 329.20577039h109.09879228a164.60288481 164.60288481 0 1 0 0-329.20577039z m9.54696766 65.84115423a98.76173135 98.76173135 0 0 1 0 197.52346192H616.22654699a98.76173135 98.76173135 0 0 1 0-197.52346192h109.09879229z" fill="#515151" p-id="5136"></path></svg>