<?xml version="1.0" standalone="no"?><!DOCTYPE svg PUBLIC "-//W3C//DTD SVG 1.1//EN" "http://www.w3.org/Graphics/SVG/1.1/DTD/svg11.dtd"><svg t="1586404487640" class="icon" viewBox="0 0 1024 1024" version="1.1" xmlns="http://www.w3.org/2000/svg" p-id="7000" xmlns:xlink="http://www.w3.org/1999/xlink" width="200" height="200"><defs><style type="text/css"></style></defs><path d="M736 480c141.44 0 256 114.56 256 256s-114.56 256-256 256-256-114.56-256-256c0-22.08 2.88-43.84 8-64.32A256.672 256.672 0 0 1 736 480z" fill="#E0EBFE" p-id="7001"></path><path d="M32 1024h704c158.816 0 288-129.216 288-288 0-151.84-118.176-276.288-267.328-286.944 7.36-31.264 11.328-63.68 11.328-97.056 0-194.08-129.184-352-288-352S192 157.92 192 352c0 181.76 113.28 331.744 258.112 350.08A293.12 293.12 0 0 0 448 736a287.456 287.456 0 0 0 107.392 224H64v-96c0-88.224 71.776-160 160-160a32 32 0 1 0 0-64c-123.52 0-224 100.48-224 224v128a32 32 0 0 0 32 32z m224-672c0-158.784 100.48-288 224-288s224 129.216 224 288c0 35.072-5.056 68.768-14.496 100.704a287.488 287.488 0 0 0-223.936 186.368C348.768 629.408 256 504.544 256 352z m256 384c0-18.88 2.368-37.888 6.976-56.256A224.512 224.512 0 0 1 736 512c123.52 0 224 100.48 224 224s-100.48 224-224 224-224-100.48-224-224z" fill="#5465CF" p-id="7002"></path><path d="M608 768h96v96a32 32 0 1 0 64 0v-96h96a32 32 0 1 0 0-64h-96v-96a32 32 0 1 0-64 0v96h-96a32 32 0 1 0 0 64z" fill="#5465CF" p-id="7003"></path></svg>