<?xml version="1.0" standalone="no"?><!DOCTYPE svg PUBLIC "-//W3C//DTD SVG 1.1//EN" "http://www.w3.org/Graphics/SVG/1.1/DTD/svg11.dtd"><svg t="1586404570161" class="icon" viewBox="0 0 1024 1024" version="1.1" xmlns="http://www.w3.org/2000/svg" p-id="7130" xmlns:xlink="http://www.w3.org/1999/xlink" width="200" height="200"><defs><style type="text/css"></style></defs><path d="M736 480c141.44 0 256 114.56 256 256s-114.56 256-256 256a255.936 255.936 0 0 1-115.2-484.48A252.8 252.8 0 0 1 736 480z" fill="#E0EBFE" p-id="7131"></path><path d="M736 448c-38.4 0-75.232 7.808-109.952 22.336a381.28 381.28 0 0 0-56.768-38.24A255.584 255.584 0 0 0 640 256c0-141.152-114.848-256-256-256S128 114.848 128 256c0 66.304 25.952 128.96 70.624 176C78.144 498.72 0 627.936 0 768v224a32 32 0 0 0 64 0v-224c0-126.016 75.904-241.472 190.144-292.224A253.248 253.248 0 0 0 384 512a253.216 253.216 0 0 0 129.728-36.16 318.08 318.08 0 0 1 51.52 28.8A285.632 285.632 0 0 0 448 736c0 158.784 129.216 288 288 288s288-129.216 288-288-129.216-288-288-288z m-242.656-34.24c-64.064 44.8-154.496 44.864-218.816-0.064A191.744 191.744 0 0 1 192 256c0-105.888 86.112-192 192-192s192 86.112 192 192c0 62.976-30.848 121.92-82.656 157.76zM736 960c-123.52 0-224-100.48-224-224a222.496 222.496 0 0 1 123.328-199.968A220 220 0 0 1 736 512c123.52 0 224 100.48 224 224s-100.48 224-224 224z" fill="#5465CF" p-id="7132"></path><path d="M864 704h-96v-96a32 32 0 0 0-64 0v96h-96a32 32 0 0 0 0 64h96v96a32 32 0 0 0 64 0v-96h96a32 32 0 0 0 0-64z" fill="#5465CF" p-id="7133"></path></svg>